# 3ds Max Wavefront OBJ Exporter v0.97b - (c)2007 guruware
# File Created: 08.07.2011 09:04:33

mtllib treasure_chest.mtl

#
# object treasure_chest
#

v  -7.7438 10.3489 4.0867
v  -7.7438 11.3160 2.5048
v  -9.6173 11.3160 2.5048
v  -9.6173 10.3489 4.0867
v  -7.7438 0.0000 5.0679
v  -7.7438 8.6205 5.0594
v  -9.6173 8.6205 5.0594
v  -9.6173 0.0000 5.0679
v  7.7438 0.0000 -5.0679
v  7.7438 8.6205 -5.0594
v  9.6173 8.6205 -5.0594
v  9.6173 0.0000 -5.0679
v  9.6173 11.3160 -2.5048
v  7.7438 11.3160 -2.5048
v  7.7438 11.7487 -0.8147
v  9.6173 11.7487 -0.8147
v  9.6173 11.7487 0.8147
v  7.7438 11.7487 0.8147
v  7.7438 11.3160 2.5048
v  9.6173 11.3160 2.5048
v  9.6173 10.3489 -4.0867
v  7.7438 10.3489 -4.0867
v  9.6173 10.3489 4.0867
v  7.7438 10.3489 4.0867
v  9.6173 0.0000 5.0679
v  9.6173 8.6205 5.0594
v  7.7438 8.6205 5.0594
v  7.7438 0.0000 5.0679
v  -9.6173 0.0000 -5.0679
v  -9.6173 8.6205 -5.0594
v  -7.7438 8.6205 -5.0594
v  -7.7438 0.0000 -5.0679
v  -9.6173 11.3160 -2.5048
v  -9.6173 11.7487 -0.8147
v  -7.7438 11.7487 -0.8147
v  -7.7438 11.3160 -2.5048
v  -9.6173 11.7487 0.8147
v  -7.7438 11.7487 0.8147
v  -9.6173 10.3489 -4.0867
v  -7.7438 10.3489 -4.0867
v  -3.8704 10.1687 3.9004
v  -3.8704 11.0771 2.4043
v  -7.7438 11.0771 2.4043
v  -7.7438 10.1687 3.9004
v  -3.8704 0.0000 4.8086
v  -3.8704 8.5548 4.8086
v  -7.7438 8.5548 4.8086
v  -7.7438 0.0000 4.8086
v  3.8704 0.0000 -4.8086
v  3.8704 8.5548 -4.8086
v  7.7438 8.5548 -4.8086
v  7.7438 0.0000 -4.8086
v  3.8704 11.0771 -2.4043
v  3.8704 11.4915 -0.7824
v  7.7438 11.4915 -0.7824
v  7.7438 11.0771 -2.4043
v  3.8704 11.4915 0.7824
v  3.8704 11.0771 2.4043
v  7.7438 11.0771 2.4043
v  7.7438 11.4915 0.7824
v  3.8704 10.1687 -3.9004
v  7.7438 10.1687 -3.9004
v  7.7438 10.1687 3.9004
v  3.8704 10.1687 3.9004
v  7.7438 0.0000 4.8086
v  7.7438 8.5548 4.8086
v  3.8704 8.5548 4.8086
v  3.8704 0.0000 4.8086
v  -7.7438 0.0000 -4.8086
v  -7.7438 8.5548 -4.8086
v  -3.8704 8.5548 -4.8086
v  -3.8704 0.0000 -4.8086
v  -7.7438 11.0771 -2.4043
v  -7.7438 11.4915 -0.7824
v  -3.8704 11.4915 -0.7824
v  -3.8704 11.0771 -2.4043
v  -7.7438 11.4915 0.7824
v  -3.8704 11.4915 0.7824
v  -7.7438 10.1687 -3.9004
v  -3.8704 10.1687 -3.9004
v  -2.6344 10.1687 3.9004
v  2.6344 10.1687 3.9004
v  2.6344 11.0771 2.4043
v  -2.6344 11.0771 2.4043
v  -2.6344 0.0000 4.8086
v  2.6344 0.0000 4.8086
v  2.6344 8.5548 4.8086
v  -2.6344 8.5548 4.8086
v  2.6344 0.0000 -4.8086
v  -2.6344 0.0000 -4.8086
v  -2.6344 8.5548 -4.8086
v  2.6344 8.5548 -4.8086
v  2.6344 11.0771 -2.4043
v  -2.6344 11.0771 -2.4043
v  -2.6344 11.4915 -0.7824
v  2.6344 11.4915 -0.7824
v  2.6344 11.4915 0.7824
v  -2.6344 11.4915 0.7824
v  2.6344 10.1687 -3.9004
v  -2.6344 10.1687 -3.9004
v  -3.8704 10.2471 3.9814
v  -2.6344 10.2471 3.9814
v  -2.6344 11.1809 2.4480
v  -3.8704 11.1809 2.4480
v  -3.8704 0.0000 4.9213
v  -2.6344 0.0000 4.9213
v  -2.6344 8.5834 4.9177
v  -3.8704 8.5834 4.9177
v  3.8704 0.0000 -4.9213
v  2.6344 0.0000 -4.9213
v  2.6344 8.5834 -4.9177
v  3.8704 8.5834 -4.9177
v  3.8704 11.1809 -2.4480
v  2.6344 11.1809 -2.4480
v  2.6344 11.6033 -0.7964
v  3.8704 11.6033 -0.7964
v  3.8704 11.6033 0.7964
v  2.6344 11.6033 0.7964
v  2.6344 11.1809 2.4480
v  3.8704 11.1809 2.4480
v  3.8704 10.2471 -3.9814
v  2.6344 10.2471 -3.9814
v  2.6344 10.2471 3.9814
v  3.8704 10.2471 3.9814
v  2.6344 0.0000 4.9213
v  3.8704 0.0000 4.9213
v  3.8704 8.5834 4.9177
v  2.6344 8.5834 4.9177
v  -2.6344 0.0000 -4.9213
v  -3.8704 0.0000 -4.9213
v  -3.8704 8.5834 -4.9177
v  -2.6344 8.5834 -4.9177
v  -2.6344 11.1809 -2.4480
v  -3.8704 11.1809 -2.4480
v  -3.8704 11.6033 -0.7964
v  -2.6344 11.6033 -0.7964
v  -2.6344 11.6033 0.7964
v  -3.8704 11.6033 0.7964
v  -2.6344 10.2471 -3.9814
v  -3.8704 10.2471 -3.9814
v  -9.6173 10.5651 -2.1876
v  -9.6173 9.7707 -3.4872
v  -9.6173 8.4089 -4.2535
v  -9.6173 10.5651 2.1876
v  -9.6173 0.0010 -4.2610
v  -9.6173 0.0010 4.2610
v  -9.6173 8.4089 4.2535
v  -9.6173 9.7707 3.4872
v  -9.6173 10.9426 -0.7132
v  -9.6173 10.9426 0.7131
v  9.6173 10.5651 2.1876
v  9.6173 9.7707 3.4872
v  9.6173 8.4089 4.2535
v  9.6173 10.5651 -2.1876
v  9.6173 0.0010 4.2610
v  9.6173 0.0010 -4.2610
v  9.6173 8.4089 -4.2535
v  9.6173 9.7707 -3.4872
v  9.6173 10.9426 0.7131
v  9.6173 10.9426 -0.7132
v  1.0498 7.3575 -4.7851
v  0.8904 6.7626 -4.7851
v  0.8904 6.7626 -4.9446
v  1.0498 7.3575 -4.9446
v  0.4549 6.3272 -4.7851
v  0.4549 6.3272 -4.9446
v  -0.1400 6.1678 -4.7851
v  -0.1400 6.1678 -4.9446
v  -0.7348 6.3272 -4.7851
v  -0.7348 6.3272 -4.9446
v  -1.1703 6.7626 -4.7851
v  -1.1703 6.7626 -4.9446
v  -1.3297 7.3575 -4.7851
v  -1.3297 7.3575 -4.9446
v  -1.1703 7.9524 -4.7851
v  -1.1703 7.9524 -4.9446
v  -0.7348 8.3879 -4.7851
v  -0.7348 8.3879 -4.9446
v  -0.1400 8.5473 -4.7851
v  -0.1400 8.5473 -4.9446
v  0.4549 8.3879 -4.7851
v  0.4549 8.3879 -4.9446
v  0.8904 7.9524 -4.7851
v  0.8904 7.9524 -4.9446
# 184 vertices

vn 0.0000 0.6942 0.7198
vn 0.0000 0.9212 0.3891
vn 0.0000 0.0010 1.0000
vn 0.0000 0.2540 0.9672
vn 0.0000 0.0010 -1.0000
vn 0.0000 0.2540 -0.9672
vn 0.0000 0.9212 -0.3891
vn 0.0000 0.9922 -0.1250
vn 0.0000 0.9922 0.1250
vn 0.0000 0.6942 -0.7198
vn 0.0000 0.6953 0.7187
vn 0.0000 0.9219 0.3875
vn 0.0000 0.0000 1.0000
vn 0.0000 0.2535 0.9673
vn 0.0000 0.0000 -1.0000
vn 0.0000 0.2535 -0.9673
vn 0.0000 0.9219 -0.3875
vn 0.0000 0.9922 -0.1248
vn 0.0000 0.9922 0.1248
vn 0.0000 0.6953 -0.7187
vn 0.0000 0.6948 0.7192
vn 0.0000 0.9216 0.3882
vn 0.0000 0.0004 1.0000
vn 0.0000 0.2537 0.9673
vn 0.0000 0.0004 -1.0000
vn 0.0000 0.2537 -0.9673
vn 0.0000 0.9216 -0.3882
vn 0.0000 0.9922 -0.1249
vn 0.0000 0.9922 0.1249
vn 0.0000 0.6948 -0.7192
vn -1.0000 0.0000 -0.0000
vn 1.0000 0.0000 -0.0000
vn 0.0001 -1.0000 0.0009
vn 0.0005 -1.0000 -0.0001
vn 0.0000 -1.0000 -0.0001
vn 0.0000 -1.0000 -0.0000
vn 0.0001 -1.0000 -0.0000
vn -0.0001 -1.0000 -0.0009
vn 0.0000 -1.0000 -0.0018
vn -0.0001 -1.0000 -0.0000
vn -0.0005 -1.0000 0.0001
vn -0.0000 -1.0000 0.0001
vn 0.0000 -1.0000 0.0001
vn 0.0000 -1.0000 0.0018
vn 0.8660 -0.5000 -0.0000
vn 0.5000 -0.8660 -0.0000
vn -0.5000 -0.8660 -0.0000
vn -0.8660 -0.5000 -0.0000
vn -0.8660 0.5000 -0.0000
vn -0.5000 0.8660 -0.0000
vn -0.0000 1.0000 -0.0000
vn 0.0000 1.0000 -0.0000
vn 0.5000 0.8660 -0.0000
vn 0.8660 0.5000 -0.0000
vn 0.0000 -0.0000 -1.0000
vn -0.0000 -0.0000 -1.0000
# 56 vertex normals

vt 0.2915 0.8108 0.2566
vt 0.1694 0.8108 0.2560
vt 0.1694 0.9984 0.2560
vt 0.2915 0.9984 0.2566
vt 0.9998 0.8108 0.3296
vt 0.4234 0.8108 0.2412
vt 0.4234 0.9984 0.2412
vt 0.9998 0.9984 0.3296
vt 1.0000 0.8109 0.3262
vt 0.4207 0.8109 0.2435
vt 0.4207 0.9988 0.2435
vt 1.0000 0.9989 0.3262
vt 0.1715 0.9988 0.2580
vt 0.1715 0.8109 0.2580
vt 0.0563 0.8109 0.2558
vt 0.0563 0.9988 0.2558
vt -0.0521 0.9988 0.2551
vt -0.0521 0.8109 0.2551
vt -0.1686 0.8109 0.2560
vt -0.1686 0.9988 0.2560
vt 0.2914 0.9988 0.2593
vt 0.2914 0.8109 0.2593
vt -0.2907 0.9988 0.2566
vt -0.2907 0.8108 0.2566
vt -0.9990 0.9988 0.3296
vt -0.4226 0.9988 0.2412
vt -0.4226 0.8108 0.2412
vt -0.9990 0.8108 0.3296
vt -0.9991 0.9984 0.3262
vt -0.4199 0.9984 0.2435
vt -0.4199 0.8107 0.2435
vt -0.9991 0.8107 0.3262
vt -0.1707 0.9984 0.2580
vt -0.0555 0.9984 0.2558
vt -0.0555 0.8108 0.2558
vt -0.1707 0.8107 0.2580
vt 0.0529 0.9984 0.2551
vt 0.0529 0.8108 0.2551
vt -0.2906 0.9984 0.2593
vt -0.2906 0.8107 0.2593
vt 1.4837 0.4906 0.2566
vt 1.4837 0.5750 0.2560
vt 1.6217 0.5750 0.2560
vt 1.6217 0.4906 0.2566
vt 1.4837 0.0010 0.3296
vt 1.4837 0.3994 0.2412
vt 1.6217 0.3994 0.2412
vt 1.6217 0.0010 0.3296
vt 1.4837 0.0011 0.3262
vt 1.4837 0.4015 0.2435
vt 1.6217 0.4015 0.2435
vt 1.6217 0.0011 0.3262
vt 1.4837 0.5737 0.2580
vt 1.4837 0.6533 0.2558
vt 1.6217 0.6533 0.2558
vt 1.6217 0.5737 0.2580
vt 1.2079 0.6555 0.2551
vt 1.2079 0.5750 0.2560
vt 1.0699 0.5750 0.2560
vt 1.0699 0.6555 0.2551
vt 1.4837 0.4908 0.2593
vt 1.6217 0.4908 0.2593
vt 1.4837 0.5930 0.2558
vt 1.4837 0.6679 0.2551
vt 1.6217 0.6679 0.2551
vt 1.6217 0.5930 0.2558
vt 1.0699 0.4906 0.2566
vt 1.2079 0.4906 0.2566
vt 1.0699 0.0010 0.3296
vt 1.0699 0.3994 0.2412
vt 1.2079 0.3994 0.2412
vt 1.2079 0.0010 0.3296
vt 1.0699 0.0011 0.3262
vt 1.0699 0.4015 0.2435
vt 1.2079 0.4015 0.2435
vt 1.2079 0.0011 0.3262
vt 1.0699 0.5737 0.2580
vt 1.0699 0.6533 0.2558
vt 1.2079 0.6533 0.2558
vt 1.2079 0.5737 0.2580
vt 1.6217 0.6555 0.2551
vt 1.4837 0.6555 0.2551
vt 1.0699 0.4908 0.2593
vt 1.2079 0.4908 0.2593
vt 1.0699 0.5929 0.2558
vt 1.0699 0.6679 0.2551
vt 1.2079 0.6679 0.2551
vt 1.2079 0.5929 0.2558
vt 1.4397 0.4906 0.2566
vt 1.2519 0.4906 0.2566
vt 1.2519 0.5750 0.2560
vt 1.4397 0.5750 0.2560
vt 1.4397 0.0010 0.3296
vt 1.2519 0.0010 0.3296
vt 1.2519 0.3994 0.2412
vt 1.4397 0.3994 0.2412
vt 1.4397 0.0011 0.3262
vt 1.2519 0.0011 0.3262
vt 1.2519 0.4015 0.2435
vt 1.4397 0.4015 0.2435
vt 1.4397 0.5737 0.2580
vt 1.2519 0.5737 0.2580
vt 1.2519 0.6533 0.2558
vt 1.4397 0.6533 0.2558
vt 1.2519 0.6555 0.2551
vt 1.4397 0.6555 0.2551
vt 1.4397 0.4908 0.2593
vt 1.2519 0.4908 0.2593
vt 1.4397 0.5930 0.2558
vt 1.2519 0.5929 0.2558
vt 1.2519 0.6679 0.2551
vt 1.4397 0.6679 0.2551
vt 0.3545 0.6872 0.2566
vt 0.3545 0.7804 0.2566
vt 0.4155 0.7804 0.2560
vt 0.4155 0.6872 0.2560
vt 0.0004 0.6872 0.3296
vt 0.0004 0.7804 0.3296
vt 0.2885 0.7804 0.2412
vt 0.2885 0.6872 0.2412
vt 0.9996 0.7805 0.3262
vt 0.9996 0.6875 0.3262
vt 0.7100 0.6875 0.2435
vt 0.7100 0.7805 0.2435
vt 0.5855 0.7805 0.2580
vt 0.5855 0.6875 0.2580
vt 0.5279 0.6875 0.2558
vt 0.5279 0.7805 0.2558
vt 0.4737 0.7804 0.2551
vt 0.4737 0.6875 0.2551
vt 0.4155 0.6875 0.2560
vt 0.6454 0.7805 0.2593
vt 0.6455 0.6875 0.2593
vt 0.3545 0.6875 0.2566
vt 0.0005 0.6875 0.3296
vt 0.0005 0.7804 0.3296
vt 0.2886 0.7804 0.2412
vt 0.2886 0.6875 0.2412
vt 0.9996 0.7804 0.3262
vt 0.9996 0.6872 0.3262
vt 0.7100 0.6872 0.2435
vt 0.7100 0.7804 0.2435
vt 0.5855 0.7804 0.2580
vt 0.5855 0.6872 0.2580
vt 0.5279 0.6872 0.2558
vt 0.5279 0.7804 0.2558
vt 0.4737 0.6872 0.2551
vt 0.6454 0.7804 0.2593
vt 0.6454 0.6872 0.2593
vt 0.0295 0.1268 -0.5000
vt 0.0793 0.0436 -0.5000
vt 0.1646 -0.0054 -0.5000
vt 0.0295 0.4067 -0.5000
vt 0.6914 -0.0058 -0.5000
vt 0.6914 0.5393 -0.5000
vt 0.1646 0.5388 -0.5000
vt 0.0793 0.4898 -0.5000
vt 0.0058 0.2211 -0.5000
vt 0.0058 0.3123 -0.5000
vt 0.0295 0.4067 0.5000
vt 0.0793 0.4898 0.5000
vt 0.1646 0.5388 0.5000
vt 0.0295 0.1268 0.5000
vt 0.6914 0.5393 0.5000
vt 0.6914 -0.0058 0.5000
vt 0.1646 -0.0054 0.5000
vt 0.0793 0.0436 0.5000
vt 0.0059 0.3123 0.5000
vt 0.0058 0.2211 0.5000
vt -0.9991 0.8081 0.3262
vt -0.4199 0.8081 0.2435
vt -0.2906 0.8081 0.2593
vt -0.1707 0.8081 0.2580
vt -0.0555 0.8081 0.2558
vt 0.0529 0.8081 0.2551
vt 0.1694 0.8081 0.2560
vt 0.2915 0.8081 0.2566
vt 0.4234 0.8081 0.2412
vt 0.9998 0.8081 0.3296
vt -0.9990 0.8086 0.3296
vt -0.4226 0.8086 0.2412
vt -0.2907 0.8086 0.2566
vt -0.1686 0.8086 0.2560
vt -0.0521 0.8086 0.2551
vt 0.0563 0.8086 0.2558
vt 0.1715 0.8086 0.2580
vt 0.2914 0.8086 0.2593
vt 0.4207 0.8086 0.2435
vt 1.0000 0.8086 0.3262
vt 0.8309 0.3349 1.0000
vt 0.8309 0.3450 1.0000
vt 0.8098 0.3450 1.0000
vt 0.8098 0.3349 1.0000
vt 0.8309 0.3551 1.0000
vt 0.8098 0.3551 1.0000
vt 0.8309 0.3652 1.0000
vt 0.8098 0.3652 1.0000
vt 0.8309 0.2442 1.0000
vt 0.8309 0.2543 1.0000
vt 0.8098 0.2543 1.0000
vt 0.8098 0.2442 1.0000
vt 0.8309 0.2644 1.0000
vt 0.8098 0.2644 1.0000
vt 0.8309 0.2745 1.0000
vt 0.8098 0.2745 1.0000
vt 0.8309 0.2846 1.0000
vt 0.8098 0.2846 1.0000
vt 0.8309 0.2946 1.0000
vt 0.8098 0.2946 1.0000
vt 0.8309 0.3047 1.0000
vt 0.8098 0.3047 1.0000
vt 0.8309 0.3148 1.0000
vt 0.8098 0.3148 1.0000
vt 0.8309 0.3249 1.0000
vt 0.8098 0.3249 1.0000
vt 0.7288 0.1647 0.2500
vt 0.7674 0.0891 0.2500
vt 0.8201 0.0614 0.2500
vt 0.7288 0.3714 0.2500
vt 0.8728 0.0891 0.2500
vt 0.9113 0.1647 0.2500
vt 0.9113 0.3714 0.2500
vt 0.9254 0.2681 0.2500
vt 0.8728 0.4470 0.2500
vt 0.8201 0.4747 0.2500
vt 0.7674 0.4470 0.2500
vt 0.7147 0.2681 0.2500
# 227 texture coords

g treasure_chest
usemtl wire_085028177
s 2
f 1/1/1 2/2/2 3/3/2 4/4/1 
f 5/5/3 6/6/4 7/7/4 8/8/3 
f 9/9/5 10/10/6 11/11/6 12/12/5 
f 13/13/7 14/14/7 15/15/8 16/16/8 
f 17/17/9 18/18/9 19/19/2 20/20/2 
f 21/21/10 22/22/10 14/14/7 13/13/7 
f 7/7/4 6/6/4 1/1/1 4/4/1 
f 11/11/6 10/10/6 22/22/10 21/21/10 
f 16/16/8 15/15/8 18/18/9 17/17/9 
f 23/23/1 20/20/2 19/19/2 24/24/1 
f 25/25/3 26/26/4 27/27/4 28/28/3 
f 29/29/5 30/30/6 31/31/6 32/32/5 
f 33/33/7 34/34/8 35/35/8 36/36/7 
f 37/37/9 3/3/2 2/2/2 38/38/9 
f 39/39/10 33/33/7 36/36/7 40/40/10 
f 26/26/4 23/23/1 24/24/1 27/27/4 
f 30/30/6 39/39/10 40/40/10 31/31/6 
f 34/34/8 37/37/9 38/38/9 35/35/8 
f 41/41/11 42/42/12 43/43/12 44/44/11 
f 45/45/13 46/46/14 47/47/14 48/48/13 
f 49/49/15 50/50/16 51/51/16 52/52/15 
f 53/53/17 54/54/18 55/55/18 56/56/17 
f 57/57/19 58/58/12 59/59/12 60/60/19 
f 61/61/20 53/53/17 56/56/17 62/62/20 
f 46/46/14 41/41/11 44/44/11 47/47/14 
f 50/50/16 61/61/20 62/62/20 51/51/16 
f 54/63/18 57/64/19 60/65/19 55/66/18 
f 63/67/11 59/59/12 58/58/12 64/68/11 
f 65/69/13 66/70/14 67/71/14 68/72/13 
f 69/73/15 70/74/16 71/75/16 72/76/15 
f 73/77/17 74/78/18 75/79/18 76/80/17 
f 77/81/19 43/43/12 42/42/12 78/82/19 
f 79/83/20 73/77/17 76/80/17 80/84/20 
f 66/70/14 63/67/11 64/68/11 67/71/14 
f 70/74/16 79/83/20 80/84/20 71/75/16 
f 74/85/18 77/86/19 78/87/19 75/88/18 
f 81/89/11 82/90/11 83/91/12 84/92/12 
f 85/93/13 86/94/13 87/95/14 88/96/14 
f 89/97/15 90/98/15 91/99/16 92/100/16 
f 93/101/17 94/102/17 95/103/18 96/104/18 
f 97/105/19 98/106/19 84/92/12 83/91/12 
f 99/107/20 100/108/20 94/102/17 93/101/17 
f 88/96/14 87/95/14 82/90/11 81/89/11 
f 92/100/16 91/99/16 100/108/20 99/107/20 
f 96/109/18 95/110/18 98/111/19 97/112/19 
f 101/113/21 102/114/21 103/115/22 104/116/22 
f 105/117/23 106/118/23 107/119/24 108/120/24 
f 109/121/25 110/122/25 111/123/26 112/124/26 
f 113/125/27 114/126/27 115/127/28 116/128/28 
f 117/129/29 118/130/29 119/131/22 120/115/22 
f 121/132/30 122/133/30 114/126/27 113/125/27 
f 108/120/24 107/119/24 102/114/21 101/113/21 
f 112/124/26 111/123/26 122/133/30 121/132/30 
f 116/128/28 115/127/28 118/130/29 117/129/29 
f 123/134/21 124/114/21 120/115/22 119/131/22 
f 125/135/23 126/136/23 127/137/24 128/138/24 
f 129/139/25 130/140/25 131/141/26 132/142/26 
f 133/143/27 134/144/27 135/145/28 136/146/28 
f 137/129/29 138/147/29 104/116/22 103/115/22 
f 139/148/30 140/149/30 134/144/27 133/143/27 
f 128/138/24 127/137/24 124/114/21 123/134/21 
f 132/142/26 131/141/26 140/149/30 139/148/30 
f 136/146/28 135/145/28 138/147/29 137/129/29 
s off
f 42/42/31 41/41/31 101/113/31 104/116/31 
f 41/41/31 46/46/31 108/120/31 101/113/31 
f 46/46/31 45/45/31 105/117/31 108/120/31 
f 85/93/32 88/96/32 107/119/32 106/118/32 
f 88/96/32 81/89/32 102/114/32 107/119/32 
f 81/89/32 84/92/32 103/115/32 102/114/32 
f 84/92/32 98/106/32 137/129/32 103/115/32 
f 98/111/32 95/110/32 136/146/32 137/129/32 
f 95/103/32 94/102/32 133/143/32 136/146/32 
f 94/102/32 100/108/32 139/148/32 133/143/32 
f 100/108/32 91/99/32 132/142/32 139/148/32 
f 91/99/32 90/98/32 129/139/32 132/142/32 
f 72/76/31 71/75/31 131/141/31 130/140/31 
f 71/75/31 80/84/31 140/149/31 131/141/31 
f 80/84/31 76/80/31 134/144/31 140/149/31 
f 76/80/31 75/79/31 135/145/31 134/144/31 
f 75/88/31 78/87/31 138/147/31 135/145/31 
f 78/82/31 42/42/31 104/116/31 138/147/31 
f 50/50/32 49/49/32 109/121/32 112/124/32 
f 89/97/31 92/100/31 111/123/31 110/122/31 
f 92/100/31 99/107/31 122/133/31 111/123/31 
f 99/107/31 93/101/31 114/126/31 122/133/31 
f 93/101/31 96/104/31 115/127/31 114/126/31 
f 96/109/31 97/112/31 118/130/31 115/127/31 
f 97/105/31 83/91/31 119/131/31 118/130/31 
f 83/91/31 82/90/31 123/134/31 119/131/31 
f 82/90/31 87/95/31 128/138/31 123/134/31 
f 87/95/31 86/94/31 125/135/31 128/138/31 
f 68/72/32 67/71/32 127/137/32 126/136/32 
f 67/71/32 64/68/32 124/114/32 127/137/32 
f 64/68/32 58/58/32 120/115/32 124/114/32 
f 58/58/32 57/57/32 117/129/32 120/115/32 
f 57/64/32 54/63/32 116/128/32 117/129/32 
f 54/54/32 53/53/32 113/125/32 116/128/32 
f 53/53/32 61/61/32 121/132/32 113/125/32 
f 61/61/32 50/50/32 112/124/32 121/132/32 
s 4
f 141/150/31 142/151/31 143/152/31 144/153/31 
f 143/152/31 145/154/31 146/155/31 144/153/31 
f 146/155/31 147/156/31 148/157/31 144/153/31 
f 149/158/31 141/150/31 144/153/31 150/159/31 
s off
f 48/48/32 47/47/32 6/6/32 5/5/32 
f 47/47/32 44/44/32 1/1/32 6/6/32 
f 44/44/32 43/43/32 2/2/32 1/1/32 
f 43/43/32 77/81/32 38/38/32 2/2/32 
f 77/86/32 74/85/32 35/35/32 38/38/32 
f 74/78/32 73/77/32 36/36/32 35/35/32 
f 73/77/32 79/83/32 40/40/32 36/36/32 
f 79/83/32 70/74/32 31/31/32 40/40/32 
f 70/74/32 69/73/32 32/32/32 31/31/32 
s 4
f 151/160/32 152/161/32 153/162/32 154/163/32 
f 153/162/32 155/164/32 156/165/32 154/163/32 
f 156/165/32 157/166/32 158/167/32 154/163/32 
f 159/168/32 151/160/32 154/163/32 160/169/32 
s off
f 52/52/31 51/51/31 10/10/31 9/9/31 
f 51/51/31 62/62/31 22/22/31 10/10/31 
f 62/62/31 56/56/31 14/14/31 22/22/31 
f 56/56/31 55/55/31 15/15/31 14/14/31 
f 55/66/31 60/65/31 18/18/31 15/15/31 
f 60/60/31 59/59/31 19/19/31 18/18/31 
f 59/59/31 63/67/31 24/24/31 19/19/31 
f 63/67/31 66/70/31 27/27/31 24/24/31 
f 66/70/31 65/69/31 28/28/31 27/27/31 
f 29/29/31 145/170/31 143/171/31 30/30/31 
f 30/30/31 143/171/31 142/172/31 39/39/31 
f 39/39/31 142/172/31 141/173/31 33/33/31 
f 33/33/31 141/173/31 149/174/31 34/34/31 
f 34/34/31 149/174/31 150/175/31 37/37/31 
f 37/37/31 150/175/31 144/176/31 3/3/31 
f 3/3/31 144/176/31 148/177/31 4/4/31 
f 4/4/31 148/177/31 147/178/31 7/7/31 
f 7/7/31 147/178/31 146/179/31 8/8/31 
f 25/25/32 155/180/32 153/181/32 26/26/32 
f 26/26/32 153/181/32 152/182/32 23/23/32 
f 23/23/32 152/182/32 151/183/32 20/20/32 
f 20/20/32 151/183/32 159/184/32 17/17/32 
f 17/17/32 159/184/32 160/185/32 16/16/32 
f 16/16/32 160/185/32 154/186/32 13/13/32 
f 13/13/32 154/186/32 158/187/32 21/21/32 
f 21/21/32 158/187/32 157/188/32 11/11/32 
f 11/11/32 157/188/32 156/189/32 12/12/32 
f 52/52/33 9/9/33 12/12/33 156/189/33 
f 155/180/34 25/25/34 28/28/34 156/189/34 
f 156/189/35 28/28/35 65/69/35 68/72/35 
f 68/72/36 126/136/36 125/135/36 86/94/36 
f 156/189/37 68/72/37 86/94/37 90/98/37 
f 85/93/36 106/118/36 105/117/36 45/45/36 
f 48/48/38 5/5/38 8/8/38 146/179/38 
f 45/45/39 48/48/39 146/179/39 85/93/39 
f 86/94/40 85/93/40 146/179/40 90/98/40 
f 145/170/41 29/29/41 32/32/41 146/179/41 
f 146/179/42 32/32/42 69/73/42 72/76/42 
f 72/76/36 130/140/36 129/139/36 90/98/36 
f 146/179/43 72/76/43 90/98/43 
f 156/189/44 90/98/44 89/97/44 49/49/44 
f 89/97/36 110/122/36 109/121/36 49/49/36 
f 52/52/44 156/189/44 49/49/44 
s 8
f 161/190/32 162/191/45 163/192/45 164/193/32 
f 162/191/45 165/194/46 166/195/46 163/192/45 
f 165/194/46 167/196/36 168/197/36 166/195/46 
f 167/198/36 169/199/47 170/200/47 168/201/36 
f 169/199/47 171/202/48 172/203/48 170/200/47 
f 171/202/48 173/204/31 174/205/31 172/203/48 
f 173/204/31 175/206/49 176/207/49 174/205/31 
f 175/206/49 177/208/50 178/209/50 176/207/49 
f 177/208/50 179/210/51 180/211/52 178/209/50 
f 179/210/51 181/212/53 182/213/53 180/211/52 
f 181/212/53 183/214/54 184/215/54 182/213/53 
f 183/214/54 161/190/32 164/193/32 184/215/54 
s 1
f 163/216/55 166/217/15 168/218/56 184/219/55 
f 168/218/56 170/220/15 172/221/56 176/222/55 
f 172/221/56 174/223/55 176/222/55 
f 176/222/55 178/224/15 180/225/15 184/219/55 
f 180/225/15 182/226/15 184/219/55 
f 168/218/56 176/222/55 184/219/55 
f 164/227/55 163/216/55 184/219/55 
# 172 polygons - 6 triangles

